<?xml version="1.0" encoding="utf-8"?>
<svg xmlns="http://www.w3.org/2000/svg" viewBox="0 0 24 24" width="18" height="18">
  <path d="M5.9902344 4.9902344 A 1.0001 1.0001 0 0 0 5.2929688 6.7070312L10.585938 12L5.2929688 17.292969 A 1.0001 1.0001 0 1 0 6.7070312 18.707031L12 13.414062L17.292969 18.707031 A 1.0001 1.0001 0 1 0 18.707031 17.292969L13.414062 12L18.707031 6.7070312 A 1.0001 1.0001 0 0 0 17.980469 4.9902344 A 1.0001 1.0001 0 0 0 17.292969 5.2929688L12 10.585938L6.7070312 5.2929688 A 1.0001 1.0001 0 0 0 5.9902344 4.9902344 z" fill="#C4C4C4" />
</svg>