<svg xmlns="http://www.w3.org/2000/svg" viewBox="0 0 48 48">
  <path d="M23.769531 4.0273438C22.346926 4.0273436 20.924198 4.6679969 20.029297 5.9472656L18.804688 7.6972656C18.42446 8.2405928 17.75762 8.4823576 17.117188 8.3105469L15.054688 7.7578125C12.039164 6.9478032 9.0513372 9.4541914 9.3242188 12.564453L9.5117188 14.693359C9.5698268 15.353629 9.2143512 15.968336 8.6132812 16.248047L6.6757812 17.150391C3.8460808 18.469157 3.1695447 22.31017 5.3769531 24.517578L6.8886719 26.027344C7.3575105 26.495668 7.4815039 27.194137 7.2011719 27.794922L6.296875 29.730469 A 1.50015 1.50015 0 0 0 6.296875 29.732422C4.9762912 32.561406 6.926866 35.937572 10.037109 36.208984L12.164062 36.394531C12.82431 36.452121 13.367828 36.908629 13.539062 37.548828L14.091797 39.613281C14.898655 42.629463 18.564065 43.963115 21.121094 42.171875L22.869141 40.945312C23.415679 40.563046 24.124412 40.564411 24.667969 40.945312L26.417969 42.171875C28.974997 43.963115 32.638455 42.629463 33.445312 39.613281L33.998047 37.548828C34.169281 36.908629 34.712799 36.452123 35.373047 36.394531L37.5 36.208984 A 1.50015 1.50015 0 0 0 37.501953 36.208984C40.612197 35.937572 42.560818 32.561406 41.240234 29.732422 A 1.50015 1.50015 0 0 0 41.240234 29.730469L40.337891 27.794922C40.057559 27.194137 40.179598 26.495668 40.648438 26.027344L42.160156 24.517578C44.36843 22.310771 43.691415 18.469337 40.861328 17.150391L38.925781 16.248047C38.324711 15.968336 37.969236 15.353629 38.027344 14.693359L38.214844 12.564453C38.487678 9.4542384 35.499899 6.9478032 32.484375 7.7578125L30.421875 8.3105469C29.781443 8.4823576 29.114601 8.2405929 28.734375 7.6972656L27.509766 5.9472656C26.614864 4.6679969 25.192137 4.0273437 23.769531 4.0273438 z M 23.769531 6.96875C24.247926 6.96875 24.725683 7.2012844 25.050781 7.6660156 A 1.50015 1.50015 0 0 0 25.050781 7.6679688L26.275391 9.4179688C27.373164 10.986642 29.349651 11.705174 31.199219 11.208984L33.261719 10.654297C34.356195 10.360306 35.325682 11.172996 35.226562 12.302734L35.039062 14.429688L35.039062 14.431641C34.872076 16.338649 35.921876 18.160741 37.658203 18.96875L37.658203 18.966797L39.59375 19.869141C40.621664 20.348194 40.840789 21.593338 40.039062 22.394531L38.529297 23.904297C37.174135 25.257972 36.809473 27.329238 37.619141 29.064453L38.523438 31C39.002854 32.027016 38.369991 33.122116 37.240234 33.220703L35.113281 33.40625C33.205529 33.572658 31.594375 34.923637 31.099609 36.773438L30.548828 38.837891C30.255686 39.933709 29.067644 40.365604 28.138672 39.714844L26.390625 38.488281C24.822181 37.389183 22.7179 37.390548 21.148438 38.488281L19.398438 39.714844C18.469465 40.365604 17.283376 39.933709 16.990234 38.837891L16.4375 36.773438C15.942734 34.923637 14.333534 33.572658 12.425781 33.40625L10.296875 33.220703C9.1671188 33.122116 8.5362088 32.027016 9.015625 31L9.9199219 29.064453C10.72959 27.329238 10.364927 25.257972 9.0097656 23.904297L7.4980469 22.394531C6.6954553 21.59194 6.9150598 20.348374 7.9433594 19.869141L9.8789062 18.966797L9.8789062 18.96875C11.615234 18.160694 12.666988 16.338649 12.5 14.431641L12.5 14.429688L12.3125 12.302734C12.21338 11.172996 13.180915 10.360306 14.275391 10.654297L16.339844 11.208984C18.189412 11.705174 20.163945 10.986642 21.261719 9.4179688L22.486328 7.6679688 A 1.50015 1.50015 0 0 0 22.486328 7.6660156C22.811427 7.2013282 23.291137 6.96875 23.769531 6.96875 z M 30.970703 17.986328 A 1.50015 1.50015 0 0 0 29.939453 18.439453L21 27.378906L17.060547 23.439453 A 1.50015 1.50015 0 1 0 14.939453 25.560547L19.939453 30.560547 A 1.50015 1.50015 0 0 0 22.060547 30.560547L32.060547 20.560547 A 1.50015 1.50015 0 0 0 30.970703 17.986328 z" fill="#969696" />
</svg>