<svg xmlns="http://www.w3.org/2000/svg" viewBox="0 0 48 48">
  <path d="M29 6 A 4 4 0 0 0 29 14 A 4 4 0 0 0 29 6 z M 23.59375 14.964844 A 1.50015 1.50015 0 0 0 23.501953 14.966797L16.511719 15.226562 A 1.50015 1.50015 0 0 0 15.404297 15.78125L11.396484 20.714844 A 1.5003105 1.5003105 0 1 0 13.726562 22.605469L17.304688 18.199219L21.634766 18.037109L17.771484 29.025391L14.984375 36.009766L6.484375 36.009766 A 1.50015 1.50015 0 1 0 6.484375 39.009766L16 39.009766 A 1.50015 1.50015 0 0 0 17.005859 38.621094L17 38.640625L17.076172 38.554688 A 1.50015 1.50015 0 0 0 17.175781 38.441406L22.572266 32.347656L31.464844 32.636719L39.53125 35.433594L39.498047 35.412109 A 1.5005351 1.5005351 0 0 0 40.591797 32.621094L33.591797 29.621094 A 1.50015 1.50015 0 0 0 33.294922 29.529297L26.078125 28.085938L29.470703 20.226562L34.1875 23.261719 A 1.50015 1.50015 0 0 0 35.8125 23.261719L41.302734 19.726562 A 1.5001867 1.5001867 0 1 0 39.679688 17.203125L35 20.216797L30.316406 17.203125 A 1.50015 1.50015 0 0 0 29.982422 17.042969L24.037109 15.042969 A 1.50015 1.50015 0 0 0 23.59375 14.964844 z" fill="#969696" />
</svg>