<?xml version="1.0" encoding="utf-8"?>
<svg xmlns="http://www.w3.org/2000/svg" viewBox="0 0 48 48" width="18" height="18">
  <path d="M31.160156 3.9980469C30.513279 4.0055385 29.862565 4.0949197 29.224609 4.2695312C23.558963 5.820036 18.546232 10.568596 14.144531 18.042969C9.7366654 25.527618 8.0417466 32.176056 9.5234375 37.794922C10.188866 40.320524 12.158569 42.322789 14.681641 43.068359L17.048828 43.769531C19.694606 44.552758 22.556861 43.287455 23.705078 40.78125L25.537109 36.789062C26.517972 34.651004 25.991289 32.109051 24.253906 30.519531L21.21875 27.746094C21.12581 27.660984 21.073285 27.553312 21.060547 27.445312L21.060547 27.443359C21.035307 27.220949 20.993797 27.142104 21.166016 26.482422C21.33858 25.821415 21.767121 24.702292 22.775391 22.990234C23.714233 21.395344 24.591532 20.280226 25.226562 19.728516C25.58284 19.420673 25.986736 19.188831 26.160156 19.238281L26.162109 19.238281L30.234375 20.458984C32.495395 21.138243 34.951199 20.330237 36.345703 18.4375L36.347656 18.435547L38.947266 14.902344L38.949219 14.902344C40.577712 12.688707 40.27504 9.5742554 38.259766 7.703125L36.460938 6.03125C35.494633 5.1344593 34.322507 4.5204842 33.074219 4.2167969C32.450075 4.0649532 31.807034 3.9905553 31.160156 3.9980469 z M 31.193359 7C31.588029 6.9967729 31.9813 7.0438124 32.363281 7.1367188C33.127243 7.3225314 33.843226 7.6952593 34.419922 8.2304688L36.21875 9.9003906C37.139475 10.75526 37.268616 12.122731 36.53125 13.125L33.931641 16.658203C33.294144 17.523466 32.158636 17.904679 31.097656 17.585938L27.007812 16.361328L27.003906 16.359375C25.045282 15.787956 23.604212 17.16639 23.261719 17.462891L23.259766 17.462891L23.259766 17.464844C22.202796 18.383133 21.22261 19.71364 20.189453 21.46875C19.081723 23.349693 18.528654 24.702116 18.261719 25.724609C17.994783 26.747103 18.055296 27.563633 18.080078 27.783203C18.175688 28.620656 18.574773 29.392526 19.193359 29.958984L22.228516 32.734375C23.029133 33.466855 23.253685 34.571168 22.810547 35.537109L22.808594 35.537109L20.978516 39.53125C20.462733 40.657045 19.132613 41.259305 17.900391 40.894531L15.533203 40.193359L15.533203 40.191406C14.011635 39.742403 12.814167 38.512762 12.423828 37.03125C11.239519 32.540115 12.548335 26.667757 16.730469 19.566406C20.906768 12.474779 25.437224 8.4156046 30.017578 7.1621094C30.402622 7.056721 30.79869 7.0032271 31.193359 7 z" fill="#FFFFFF" />
</svg>